<svg xmlns="http://www.w3.org/2000/svg" height="200" width="200" viewBox="0 0 200 200" >
	<g class="calendar" stroke-width="2" stroke="hsla(232, 77%, 58%, 1)" fill="transparent" >
		<rect x="25" y="75" width="150" height="100" />
		
		<rect x="130" y="77" width="19" height="14" />
		<rect x="151" y="77" width="19" height="14" />

		<rect x="27" y="93" width="19" height="14" />
		<rect x="46" y="93" width="19" height="14" />
		<rect x="67" y="93" width="19" height="14" />
		<rect x="88" y="93" width="19" height="14" />
		<rect x="109" y="93" width="19" height="14" />
		<rect x="130" y="93" width="19" height="14" />
		<rect x="151" y="93" width="19" height="14" />

		<rect x="27" y="109" width="19" height="14" />
		<rect x="46" y="109" width="19" height="14" />
		<rect x="67" y="109" width="19" height="14" />
		<rect x="88" y="109" width="19" height="14" />
		<rect x="109" y="109" width="19" height="14" />
		<rect x="130" y="109" width="19" height="14" />
		<rect x="151" y="109" width="19" height="14" />

		<rect x="27" y="125" width="19" height="14" />
		<rect x="46" y="125" width="19" height="14" />
		<rect x="67" y="125" width="19" height="14" />
		<rect x="88" y="125" width="19" height="14" />
		<rect x="109" y="125" width="19" height="14" />
		<rect x="130" y="125" width="19" height="14" />
		<rect x="151" y="125" width="19" height="14" />
		
		<rect x="27" y="141" width="19" height="14" />
		<rect x="46" y="141" width="19" height="14" />
		<rect x="67" y="141" width="19" height="14" />
		<rect x="88" y="141" width="19" height="14" />
		<rect x="109" y="141" width="19" height="14" />
		<rect x="130" y="141" width="19" height="14" />
		<rect x="151" y="141" width="19" height="14" />

		<rect x="27" y="157" width="19" height="14" />
	</g>
</svg>